<mxfile host="Electron" agent="Mozilla/5.0 (Windows NT 10.0; Win64; x64) AppleWebKit/537.36 (KHTML, like Gecko) draw.io/24.7.5 Chrome/126.0.6478.183 Electron/31.3.0 Safari/537.36" version="24.7.5">
  <diagram name="PÃ¡gina-1" id="qtWB62wIECR1Y_Bj3w6D">
    <mxGraphModel dx="2012" dy="688" grid="1" gridSize="10" guides="1" tooltips="1" connect="1" arrows="1" fold="1" page="1" pageScale="1" pageWidth="827" pageHeight="1169" math="0" shadow="0">
      <root>
        <mxCell id="0" />
        <mxCell id="1" parent="0" />
        <mxCell id="-F4v_tLugcPzMb-_EYM7-24" value="Apache Tomcat Server embedded" style="rounded=0;whiteSpace=wrap;html=1;verticalAlign=top;align=center;fontFamily=Verdana;" vertex="1" parent="1">
          <mxGeometry x="130" y="190" width="850" height="390" as="geometry" />
        </mxCell>
        <mxCell id="-F4v_tLugcPzMb-_EYM7-7" style="edgeStyle=orthogonalEdgeStyle;rounded=0;orthogonalLoop=1;jettySize=auto;html=1;entryX=0;entryY=0.5;entryDx=0;entryDy=0;flowAnimation=1;" edge="1" parent="1" source="-F4v_tLugcPzMb-_EYM7-1" target="-F4v_tLugcPzMb-_EYM7-2">
          <mxGeometry relative="1" as="geometry" />
        </mxCell>
        <mxCell id="-F4v_tLugcPzMb-_EYM7-1" value="Controller" style="rounded=0;whiteSpace=wrap;html=1;fillColor=#dae8fc;strokeColor=#6c8ebf;fontSize=24;fontFamily=Verdana;" vertex="1" parent="1">
          <mxGeometry x="170" y="260" width="150" height="270" as="geometry" />
        </mxCell>
        <mxCell id="-F4v_tLugcPzMb-_EYM7-8" style="edgeStyle=orthogonalEdgeStyle;rounded=0;orthogonalLoop=1;jettySize=auto;html=1;entryX=0;entryY=0.5;entryDx=0;entryDy=0;flowAnimation=1;" edge="1" parent="1" source="-F4v_tLugcPzMb-_EYM7-2" target="-F4v_tLugcPzMb-_EYM7-3">
          <mxGeometry relative="1" as="geometry" />
        </mxCell>
        <mxCell id="-F4v_tLugcPzMb-_EYM7-2" value="Service" style="rounded=0;whiteSpace=wrap;html=1;fillColor=#fff2cc;strokeColor=#d6b656;fontSize=24;fontFamily=Verdana;" vertex="1" parent="1">
          <mxGeometry x="380" y="260" width="150" height="270" as="geometry" />
        </mxCell>
        <mxCell id="-F4v_tLugcPzMb-_EYM7-3" value="Repository" style="rounded=0;whiteSpace=wrap;html=1;fillColor=#d5e8d4;strokeColor=#82b366;fontSize=24;fontFamily=Verdana;" vertex="1" parent="1">
          <mxGeometry x="580" y="260" width="150" height="270" as="geometry" />
        </mxCell>
        <mxCell id="-F4v_tLugcPzMb-_EYM7-4" value="H2" style="shape=cylinder3;whiteSpace=wrap;html=1;boundedLbl=1;backgroundOutline=1;size=15;fillColor=#f5f5f5;fontColor=#333333;strokeColor=#666666;" vertex="1" parent="1">
          <mxGeometry x="850" y="270" width="60" height="80" as="geometry" />
        </mxCell>
        <mxCell id="-F4v_tLugcPzMb-_EYM7-6" style="edgeStyle=orthogonalEdgeStyle;rounded=0;orthogonalLoop=1;jettySize=auto;html=1;entryX=0;entryY=0.5;entryDx=0;entryDy=0;flowAnimation=1;" edge="1" parent="1" source="-F4v_tLugcPzMb-_EYM7-5" target="-F4v_tLugcPzMb-_EYM7-1">
          <mxGeometry relative="1" as="geometry" />
        </mxCell>
        <mxCell id="-F4v_tLugcPzMb-_EYM7-5" value="Postman" style="sketch=0;outlineConnect=0;fontColor=#232F3E;gradientColor=none;fillColor=#232F3D;strokeColor=none;dashed=0;verticalLabelPosition=bottom;verticalAlign=top;align=center;html=1;fontSize=12;fontStyle=0;aspect=fixed;pointerEvents=1;shape=mxgraph.aws4.client;" vertex="1" parent="1">
          <mxGeometry x="-80" y="348.5" width="95.45" height="93" as="geometry" />
        </mxCell>
        <mxCell id="-F4v_tLugcPzMb-_EYM7-9" style="edgeStyle=orthogonalEdgeStyle;rounded=0;orthogonalLoop=1;jettySize=auto;html=1;entryX=0;entryY=0.5;entryDx=0;entryDy=0;entryPerimeter=0;flowAnimation=1;exitX=1;exitY=0.5;exitDx=0;exitDy=0;" edge="1" parent="1" source="-F4v_tLugcPzMb-_EYM7-14" target="-F4v_tLugcPzMb-_EYM7-4">
          <mxGeometry relative="1" as="geometry" />
        </mxCell>
        <mxCell id="-F4v_tLugcPzMb-_EYM7-14" value="JDBC" style="rounded=0;whiteSpace=wrap;html=1;fillColor=#e1d5e7;strokeColor=#9673a6;" vertex="1" parent="1">
          <mxGeometry x="680" y="413" width="130" height="20" as="geometry" />
        </mxCell>
        <mxCell id="-F4v_tLugcPzMb-_EYM7-17" value="Synchronous calls to the database" style="text;html=1;align=center;verticalAlign=middle;resizable=0;points=[];autosize=1;strokeColor=default;fillColor=none;fontSize=8;fontFamily=Verdana;" vertex="1" parent="1">
          <mxGeometry x="805" y="450" width="160" height="20" as="geometry" />
        </mxCell>
        <mxCell id="-F4v_tLugcPzMb-_EYM7-21" value="Encapsuling response object" style="shape=flexArrow;endArrow=classic;html=1;rounded=0;width=20.689655172413794;endSize=6.8965517241379315;flowAnimation=0;labelBackgroundColor=none;fontStyle=0;fontSize=9;fontFamily=Verdana;fillColor=#f5f5f5;strokeColor=#666666;gradientColor=none;shadow=1;" edge="1" parent="1">
          <mxGeometry x="-0.002" width="50" height="50" relative="1" as="geometry">
            <mxPoint x="575" y="449" as="sourcePoint" />
            <mxPoint x="425" y="446.91" as="targetPoint" />
            <mxPoint as="offset" />
          </mxGeometry>
        </mxCell>
        <mxCell id="-F4v_tLugcPzMb-_EYM7-22" style="edgeStyle=orthogonalEdgeStyle;rounded=0;orthogonalLoop=1;jettySize=auto;html=1;entryX=0.002;entryY=0.633;entryDx=0;entryDy=0;entryPerimeter=0;strokeColor=none;" edge="1" parent="1" source="-F4v_tLugcPzMb-_EYM7-14" target="-F4v_tLugcPzMb-_EYM7-17">
          <mxGeometry relative="1" as="geometry" />
        </mxCell>
        <mxCell id="-F4v_tLugcPzMb-_EYM7-23" style="edgeStyle=orthogonalEdgeStyle;rounded=0;orthogonalLoop=1;jettySize=auto;html=1;entryX=0;entryY=0.567;entryDx=0;entryDy=0;entryPerimeter=0;strokeColor=default;dashed=1;dashPattern=1 1;endArrow=none;endFill=0;" edge="1" parent="1" source="-F4v_tLugcPzMb-_EYM7-14" target="-F4v_tLugcPzMb-_EYM7-17">
          <mxGeometry relative="1" as="geometry" />
        </mxCell>
        <mxCell id="-F4v_tLugcPzMb-_EYM7-26" value="Request&lt;br&gt;localhost:8080" style="text;html=1;align=center;verticalAlign=middle;resizable=0;points=[];autosize=1;strokeColor=none;fillColor=none;" vertex="1" parent="1">
          <mxGeometry x="20" y="348.5" width="100" height="40" as="geometry" />
        </mxCell>
        <mxCell id="-F4v_tLugcPzMb-_EYM7-28" value="Response by reactive flow" style="shape=flexArrow;endArrow=classic;html=1;rounded=0;width=20.689655172413794;endSize=6.8965517241379315;flowAnimation=0;labelBackgroundColor=none;fontStyle=0;fontSize=9;fontFamily=Verdana;fillColor=#f5f5f5;strokeColor=#666666;gradientColor=none;shadow=1;" edge="1" parent="1">
          <mxGeometry x="-0.0004" width="50" height="50" relative="1" as="geometry">
            <mxPoint x="420" y="446" as="sourcePoint" />
            <mxPoint x="69" y="446" as="targetPoint" />
            <mxPoint as="offset" />
          </mxGeometry>
        </mxCell>
        <mxCell id="-F4v_tLugcPzMb-_EYM7-30" value="&lt;span style=&quot;font-family: Verdana; font-size: 9px; text-wrap: nowrap;&quot;&gt;Reactive programming to handle data flows in Async form using RxJava.&lt;/span&gt;" style="rounded=0;whiteSpace=wrap;html=1;" vertex="1" parent="1">
          <mxGeometry x="255" y="550" width="600" height="20" as="geometry" />
        </mxCell>
      </root>
    </mxGraphModel>
  </diagram>
</mxfile>
